{"title":"Hotel Transylvania 2 2015 NEW HDCAM XVID AC3 HQ Hive-CM8","uid":12510290,"size":1392005672,"categoryP":"video","categoryS":"movies","magnet":"?xt=urn:btih:e8f507d02164804c2fdeb57bcfb3a7965506df0b&amp;dn=Hotel+Transylvania+2+2015+NEW+HDCAM+XVID+AC3+HQ+Hive-CM8&amp;tr=udp%3A%2F%2Ftracker.leechers-paradise.org%3A6969&amp;tr=udp%3A%2F%2Fzer0day.ch%3A1337&amp;tr=udp%3A%2F%2Fopen.demonii.com%3A1337&amp;tr=udp%3A%2F%2Ftracker.coppersurfer.tk%3A6969&amp;tr=udp%3A%2F%2Fexodus.desync.com%3A6969","seeders":0,"leechers":1,"uploader":"makintos13","files":3,"time":1443535060,"description":"screens:\r\n \nhttp://imgmak.com/S9\r\n \nhttp://imgmak.com/SM\r\n \nhttp://imgmak.com/SO\r\n \nhttp://imgmak.com/SP\r\n \nhttp://imgmak.com/SY\r\n\r\n\r\nCM8 Doing It Right The First Time \r\n\r\nSources:\r\n\r\nVideo: 720p Latino HDCAM\r\nAudio: English Mic from unknown release\r\nthx\r\n\r\nNotes:\r\n\r\nhad that great HDCam since yesterday but was stuck without audio.\r\nthis one has full resolution nothing cropped and its complete.\r\nunknown version had 720x244 this one has 720x352 so you can see it all now\r\n\r\nEncode:\r\n\r\nVideo was very nice to begin with, fixed brightness contrast relation and added some sharpness.\r\nMic was also very nice, cleaned it through and lipsynced it to my video.\r\n\r\ngot very nice\r\nwill do me till retail\r\nenjoy\r\n\r\nVideo: 720x352 @bitrate 2000 2pass\r\nAudio: English AC3 2.0 Stereo MIC\r\nSample: Yes included\r\n\r\n\r\n \nhttp://www.imdb.com/title/tt2510894/\r\n\r\n\r\n\r\nComplete name                  : Hotel.Transylvania.2.2015.NEW.HDCAM.XVID.AC3.HQ.Hive-CM8.avi\r\nFormat                         : AVI    \r\nFormat/Info                    : Audio Video Interleave\r\nFile size                      : 1.27 GiB\r\nDuration                       : 1h 20mn\r\nOverall bit rate               : 2 267 Kbps\r\nWriting application            : Nandub v1.0rc2\r\nWriting library                : Nandub build 1853/release\r\n\r\nVideo\r\nID                             : 0\r\nFormat                         : MPEG-4 Visual\r\nFormat profile                 : Advanced   \r\nFormat settings, BVOP          : 2\r\nFormat settings, QPel          : Yes\r\nFormat settings, GMC           : No warppoints\r\nFormat settings, Matrix        : Default (H.263)\r\nMuxing mode                    : Packed bitstream\r\nCodec ID                       : XVID\r\nCodec ID/Hint                  : XviD\r\nDuration                       : 1h 20mn\r\nBit rate                       : 2 000 Kbps\r\nWidth                          : 720 pixels\r\nHeight                         : 352 pixels\r\nDisplay aspect ratio           : 2.045\r\nFrame rate                     : 29.970 fps\r\nColor space                    : YUV\r\nChroma subsampling             : 4:2:0\r\nBit depth                      : 8 bits\r\nScan type                      : Progressive\r\nCompression mode               : Lossy\r\nBits/(Pixel*Frame)             : 0.263\r\nStream size                    : 1.12 GiB (88%)\r\nWriting library                : XviD 1.2.1 (UTC 2008-12-04)\r\n\r\nAudio\r\nID                             : 1\r\nFormat                         : AC-3\r\nFormat/Info                    : Audio Coding 3\r\nMode extension                 : CM (complete main)\r\nFormat settings, Endianness    : Big\r\nCodec ID                       : 2000\r\nDuration                       : 1h 20mn\r\nBit rate mode                  : Constant\r\nBit rate                       : 256 Kbps\r\nChannel(s)                     : 2 channels\r\nChannel positions              : Front: L R\r\nSampling rate                  : 48.0 KHz\r\nBit depth                      : 16 bits\r\nCompression mode               : Lossy\r\nDelay relative to video        : 40ms\r\nStream size                    : 147 MiB (11%)\r\nAlignment                      : Split accross interleaves\r\nInterleave, duration           : 33 ms (1.00 video frame)\r\nInterleave, preload duration   : 500 ms","torrent":{"xt":"urn:btih:e8f507d02164804c2fdeb57bcfb3a7965506df0b","amp;dn":"Hotel+Transylvania+2+2015+NEW+HDCAM+XVID+AC3+HQ+Hive-CM8","amp;tr":["udp%3A%2F%2Ftracker.leechers-paradise.org%3A6969","udp%3A%2F%2Fzer0day.ch%3A1337","udp%3A%2F%2Fopen.demonii.com%3A1337","udp%3A%2F%2Ftracker.coppersurfer.tk%3A6969","udp%3A%2F%2Fexodus.desync.com%3A6969"],"infoHash":"e8f507d02164804c2fdeb57bcfb3a7965506df0b","infoHashBuffer":{"type":"Buffer","data":[232,245,7,208,33,100,128,76,47,222,181,123,207,179,167,150,85,6,223,11]},"announce":[],"urlList":[]}}